<svg id="Capa_1" data-name="Capa 1" xmlns="http://www.w3.org/2000/svg" xmlns:xlink="http://www.w3.org/1999/xlink" viewBox="0 0 237.79 285.05"><defs><style>.cls-1,.cls-14{fill:none;}.cls-2{fill:#383637;}.cls-3{fill:#262626;}.cls-4{fill:#f49f85;}.cls-5{fill:#f5b5b1;}.cls-6{clip-path:url(#clip-path);}.cls-7{fill:#d2224e;}.cls-8{fill:#bc965a;}.cls-9{clip-path:url(#clip-path-2);}.cls-10{fill:#ed6c57;}.cls-11{clip-path:url(#clip-path-3);}.cls-12{fill:#fff;}.cls-13{clip-path:url(#clip-path-13);}.cls-14{stroke:#969696;stroke-miterlimit:10;stroke-width:1.27px;}.cls-15{fill:#e88a85;}</style><clipPath id="clip-path" transform="translate(-277.63 -163.06)"><rect class="cls-1" x="430.75" y="260.62" width="12.1" height="11.4"/></clipPath><clipPath id="clip-path-2" transform="translate(-277.63 -163.06)"><rect class="cls-1" x="404.49" y="339.15" width="14.86" height="5.85"/></clipPath><clipPath id="clip-path-3" transform="translate(-277.63 -163.06)"><rect class="cls-1" x="414.89" y="235.07" width="21.25" height="2.91"/></clipPath><clipPath id="clip-path-13" transform="translate(-277.63 -163.06)"><rect class="cls-1" x="436.6" y="250.63" width="19.38" height="13.47"/></clipPath></defs><path class="cls-2" d="M422.81,275.83a7.52,7.52,0,0,0,4.7-1.74,13.21,13.21,0,0,0,3.94-6.42l-.65-.21a12.64,12.64,0,0,1-3.72,6.1c-1.65,1.35-4.33,2.21-6.57,1.06a4.45,4.45,0,0,1-2.2-2.9,3.42,3.42,0,0,1,.51-2.87l.81-1.08-1.22.57a8.72,8.72,0,0,1-7.73-15.63l-.29-.62a15,15,0,0,1-10.76.66,10.51,10.51,0,0,1-7-7.76,8.17,8.17,0,0,1,4.6-8.88l1.42-.57-1.53-.09a9.15,9.15,0,0,1,.54-18.28h.11l1,0-.82-.63a12.58,12.58,0,0,1,11.46-22l.71.23-.3-.69a12.35,12.35,0,0,1,18.32-15.09l.69.47-.16-.82a13.14,13.14,0,0,1,12.32-15h.1a13.13,13.13,0,0,1,12.13,15.2l-.25,1.13.82-.82a14.25,14.25,0,0,1,22.89,3.88l.32.67.3-.68a7.74,7.74,0,1,1,12.74,8.49l-.55.58h.81a9.34,9.34,0,0,1,3.22,18.11l-1.25.46,1.32.2a10.58,10.58,0,0,1,.13,20.9l-1.12.19,1,.46A9.19,9.19,0,0,1,487,249.59l-.89-.3.48.8a10.32,10.32,0,0,1-8.34,15.65h-.31l0,.31a9.35,9.35,0,0,1-17.85,3.37l-.62.28a10,10,0,0,0,19.14-3.32,11,11,0,0,0,9-15.94,9.86,9.86,0,0,0,7.27-18.12,11.25,11.25,0,0,0,0-21.82,10,10,0,0,0-3.74-19,8.5,8.5,0,0,0,1.64-6.21,8,8,0,0,0-10.55-7,8.49,8.49,0,0,0-5.11,3.93,14.93,14.93,0,0,0-22.93-4.15,13.24,13.24,0,0,0-3-9.85,12.41,12.41,0,0,0-20-.19,13.21,13.21,0,0,0-3.16,10A13,13,0,0,0,409,193.78a13.25,13.25,0,0,0-12.1,22.76,9.82,9.82,0,0,0-.94,19.46,9,9,0,0,0-4,9.12,11.21,11.21,0,0,0,7.42,8.28,15.12,15.12,0,0,0,9,.12,9.38,9.38,0,0,0,9.39,15.8,4.33,4.33,0,0,0-.14,2.56,5.06,5.06,0,0,0,2.55,3.36,5.91,5.91,0,0,0,2.61.59" transform="translate(-277.63 -163.06)"/><path class="cls-2" d="M503.85,228.23a5.86,5.86,0,0,1,.26,3.36,5.16,5.16,0,0,1-.36,1.09c-.1.21-.21.43-.33.63a6.35,6.35,0,0,1-1.14,1.37,6.23,6.23,0,0,1-2.93,1.58,6.19,6.19,0,0,1,1.47,7.05,6.77,6.77,0,0,1-6.49,3.68c2.11,4.55-.84,10.55-5.85,11.92-.61,4-4.71,7.14-8.9,6.89.58,3.87-4.38,5.6-7.41,6a13.43,13.43,0,0,1-5.28-.33c-.44-.12-4.43-1.52-4.25-2.06a5.89,5.89,0,0,1-11.06.3,8,8,0,0,1-14.71.79,7.68,7.68,0,0,1-13-.62,8.3,8.3,0,0,1-6.84-.32c-.38-.19-4.9-3.17-3.67-3.8a3.89,3.89,0,0,1-4.56-.87,3.48,3.48,0,0,1-.56-3.36,3.07,3.07,0,0,1,.63-1.05,8.81,8.81,0,0,1-1.62.05l-.21,0a8.78,8.78,0,0,1-6.53-3.86,8,8,0,0,1-.91-6.18,7.33,7.33,0,0,1,.46-1.29,1.71,1.71,0,0,1,.17-.33,6.37,6.37,0,0,1,.63-1,4.51,4.51,0,0,1-1,0,.83.83,0,0,1-.31,0,4.32,4.32,0,0,1-1.07-.21.38.38,0,0,1-.21-.07,5,5,0,0,1-2.77-2.18,4.8,4.8,0,0,1,0-4.83c.1-.16.2-.31.31-.46l.25-.3-.3-.18a2.93,2.93,0,0,1-.45-.3,10.33,10.33,0,0,1,.75-17.82,7.6,7.6,0,0,1-6.64-4.48,7,7,0,0,1,1.65-7.58,6.26,6.26,0,0,1-2.72-6.85,6.71,6.71,0,0,1,6-4.6c-1.25-3.08.54-6.81,3.58-8.44a6.72,6.72,0,0,1,1.07-.45,1.24,1.24,0,0,1,.31-.1,5.51,5.51,0,0,1,1.4-.21,5.9,5.9,0,0,1-.4-1.48,2.43,2.43,0,0,1,0-.38,4.9,4.9,0,0,1,.05-1.48,1.11,1.11,0,0,1,.05-.28,6.49,6.49,0,0,1,.87-2.19,5.5,5.5,0,0,1,.94-1.15,7.16,7.16,0,0,1,6.87-1.57.52.52,0,0,0,.51,0,9.86,9.86,0,0,1,9.31-6.81,4,4,0,0,1,.43-1,5.46,5.46,0,0,1,2.6-2.27,6.84,6.84,0,0,1,5-.3,4.84,4.84,0,0,1,1.8,1.09,14.91,14.91,0,0,1,4.73-3.54,17.06,17.06,0,0,1,14-.46c.68-2.08,4-2.79,5.52-1.17a14,14,0,0,1,14.19,6.39,4.56,4.56,0,0,1,4.86-.73,4.16,4.16,0,0,1,2.39,4.1c5.39-1,10.91,4.22,10,9.36,7.35,2.26,12.48,9.79,11.64,17.09,5.67,2.11,8.52,9.28,5.72,14.42a5,5,0,0,1,3.38,4.57,4.85,4.85,0,0,1-1.63,3.45l-.36.3a4,4,0,0,1-.92.53,2.36,2.36,0,0,1-.54.21,2.05,2.05,0,0,1,.23.2,3.9,3.9,0,0,1,.38.33,6.14,6.14,0,0,1,1.07,1.43,3.43,3.43,0,0,1,.37.77" transform="translate(-277.63 -163.06)"/><path class="cls-3" d="M356.74,364.45a12.67,12.67,0,0,0,6.16,4,53.6,53.6,0,0,0,7.3,1.31,25.08,25.08,0,0,1,7.11,1.78c3.6,1.64,6.25,4.61,9.37,6.91A29.92,29.92,0,0,0,409,384a4.34,4.34,0,0,0,3.16-1.5l.24-.4a3.17,3.17,0,0,0,0-2.4,7.28,7.28,0,0,0-1.56-2.46,57,57,0,0,0-38.37-20.37,48.35,48.35,0,0,1-7.75-.92c-1.59-.41-3.32-1.61-5-1.61a5.28,5.28,0,0,0-1.29.18,6.18,6.18,0,0,1-1.71,1.06c-.08.14-.23.26-.32.4-1.74,2.25-1.36,6.3.36,8.49" transform="translate(-277.63 -163.06)"/><path class="cls-3" d="M513.36,364.42a13.6,13.6,0,0,1-6.7,3,59.44,59.44,0,0,1-7.58.5,28.54,28.54,0,0,0-7.44.95c-3.84,1.15-6.85,3.6-10.28,5.4-6.93,3.73-26.7,4.38-27.25,3.41-.07-.13.73-2.37.66-2.5A2.58,2.58,0,0,1,455,373a6.87,6.87,0,0,1,1.85-2.09c10.81-9.58,26-15.08,41.25-14.92a56.1,56.1,0,0,0,8-.1c1.66-.23,3.56-1.15,5.28-1a6.56,6.56,0,0,1,1.29.28,6.16,6.16,0,0,0,1.63,1.13c.07.13.21.26.28.39,1.55,2.21.74,5.87-1.25,7.69" transform="translate(-277.63 -163.06)"/><path class="cls-4" d="M424,309.53c-9.59,32.44-22.22,64.09-39.17,93.41-2.75,4.57-8.12,5.59-12.81,4.15-13.1-2.8-22.37-11.91-32.08-20.34s-20-15.74-30.35-23.08c-5.76-3.92-.13-12.84,5.88-9.28,19.43,11.23,47.48,25.71,66,37.83l-13,4.21q17.61-47.49,35.83-94.74c5.5-13,24.46-5.43,19.7,7.84" transform="translate(-277.63 -163.06)"/><path class="cls-4" d="M450.44,290.93l-3.46-.4-2.43-30.89H432.7l-4.85,30.92s-4.83.65-7,1.13l-2.48.58c-8.16,2.16-13.53,5.64-13.53,9.59,0,1.7,1,4.23,2.78,7l-.07.15c-1.89,4.2-6.57,12.31-6.57,12.31l6.34,11.71-9.46,48.29,12.78,5.8,34.54-10.83c-.07-1.54,10.74-55.47,10.74-55.47,8.7-6.06,14.42-14.89,14.42-19,0-4.9-8.2-9.11-19.88-10.93" transform="translate(-277.63 -163.06)"/><path class="cls-4" d="M491.52,447.48H473a142.28,142.28,0,0,1-3.41-18.94A76,76,0,0,1,469.3,412c-1.34-11.51-4.89-22.75-8-34-.54-1.87-1-3.75-1.47-5.62a28.94,28.94,0,0,1-.8-3.21c-.74-3-1.34-6-1.87-9.1-.67-4.08-1.34-8.23-2-12.31-.74-4.35-1.4-8.77-2-13.12-1.27-9-2.34-18.14-2.81-27.3-.67-4.75,1.2-8.3,4.15-10.31,4.68-3.35,12-2.81,15.26,2.81a1.24,1.24,0,0,1,.27.6,10.68,10.68,0,0,1,1.2,3.41c2.54,16.8,5.35,35.4,8.3,54.81.33,2.88.8,5.82,1.2,8.7.33,2.28.67,4.48,1,6.76,3.48,24.23,7,49.26,9.77,73.35" transform="translate(-277.63 -163.06)"/><path class="cls-5" d="M464.35,447.48H417.77c-1-12.11-1.87-24.29-2.68-36.41a20.72,20.72,0,0,1,6.83-16.33H422a17.15,17.15,0,0,1,3.15-2.34,10.1,10.1,0,0,1,1.47-.74,21.28,21.28,0,0,1,4.42-1.81h.13a25.86,25.86,0,0,1,3.21-.6,21.75,21.75,0,0,1,8,.6,17.83,17.83,0,0,1,3.21,1h.07a16.26,16.26,0,0,1,3.35,2,19.17,19.17,0,0,1,6.69,7.76,8.32,8.32,0,0,1,.8,1.61c6.89,14.4,7.22,29.92,7.83,45.25" transform="translate(-277.63 -163.06)"/><path class="cls-5" d="M424.53,403.44c.07,14.79-.54,29.45-1.61,44H386.58c2.34-15.12,4.55-30.05,6.63-44.5a17.44,17.44,0,0,0,.27-1.74,6.91,6.91,0,0,1,.4-1.67,14.28,14.28,0,0,1,3.48-6.69,4.19,4.19,0,0,1,.94-.94,17.75,17.75,0,0,1,2.81-2.08c.74-.33,1.47-.67,2.21-.94a17.43,17.43,0,0,1,10.31-.27c.74.27,1.47.54,2.21.87h.07a16.57,16.57,0,0,1,3.08,1.94,12.42,12.42,0,0,1,.94.87,10.11,10.11,0,0,1,2,2.41H422a16.38,16.38,0,0,1,2.52,8.7" transform="translate(-277.63 -163.06)"/><g class="cls-6"><path class="cls-5" d="M442.85,263.84c0,4.28-5.31,7.79-12.1,8.19l1.79-11.4h9.24a5.52,5.52,0,0,1,1.07,3.21" transform="translate(-277.63 -163.06)"/></g><path class="cls-7" d="M463.59,199.86c-.26-.65-.61-1.49-.18-2.14.66-1,1.34-.05,1.6.59a3.57,3.57,0,0,0,1.39,2c.63.39,1.46.17,2,.56.32.23,1.29,1.33,1,1.77s.28.81.57.49l.56-.63-.59-.11c1.44,2.4,3.09,5,5.34,6.75,1.91,1.46,4.57,2.05,6.63.56a5.53,5.53,0,0,0,2.11-5.81,6.64,6.64,0,0,0-4.64-4.49,8.35,8.35,0,0,0-7.81,2.35c-.35.34.16.9.51.56,2-2,5.1-3.06,7.83-1.92,2.46,1,4.19,3.74,3.26,6.39-1.05,3-4.26,3.79-6.85,2.17s-4.24-4.46-5.71-6.91a.38.38,0,0,0-.59-.11l-.56.63.57.49c.49-.77-.24-1.77-.74-2.34a2.14,2.14,0,0,0-1-.73c-.41-.12-.85,0-1.25-.16a2.22,2.22,0,0,1-1.22-1.36c-.4-1-1.08-2.47-2.43-1.8s-1,2.41-.51,3.55c.17.45.84.1.66-.35" transform="translate(-277.63 -163.06)"/><path class="cls-7" d="M465.65,203.73c.69.11,1.59.26,2.13-.3.83-.87-.25-1.32-.93-1.42a3.58,3.58,0,0,1-2.26-.9c-.52-.53-.49-1.39-1-1.85-.29-.26-1.59-1-1.95-.58s-.86-.09-.6-.45l.48-.69c.08.18.16.37.23.55-2.66-.87-5.59-1.89-7.77-3.69-1.85-1.53-3-4-2-6.34a5.52,5.52,0,0,1,5.19-3.35,6.61,6.61,0,0,1,5.41,3.52,8.36,8.36,0,0,1-.54,8.14c-.25.41-.91,0-.66-.37,1.46-2.42,1.85-5.66.12-8.07-1.55-2.17-4.58-3.25-7-1.75-2.68,1.69-2.74,5-.59,7.16s5.29,3.14,8,4a.38.38,0,0,1,.23.55l-.48.69-.6-.45c.64-.65,1.78-.16,2.45.2a2.07,2.07,0,0,1,.93.8c.21.37.2.82.43,1.18a2.25,2.25,0,0,0,1.6.89c1.05.17,2.64.5,2.3,2s-2.13,1.49-3.35,1.3c-.46-.09-.27-.82.21-.75" transform="translate(-277.63 -163.06)"/><path class="cls-7" d="M356.38,356c2.53-.71,10.46-2,21.89,8.22a43.3,43.3,0,0,0,21.79,10.18h.14a19.67,19.67,0,0,1,12.2,7.7,21.64,21.64,0,0,1,1.81,2.9L419,288.06c-18,5.08-24.15,21.85-33.26,36.54-7.32,11.81-28.48,30.72-29.06,31-.09.13-.24.26-.32.4" transform="translate(-277.63 -163.06)"/><path class="cls-7" d="M404,297.7a128.33,128.33,0,0,0-16.36,24c-.19.36-.77.12-.58-.24a129.12,129.12,0,0,1,16.44-24.15c.27-.31.77.08.5.38" transform="translate(-277.63 -163.06)"/><path class="cls-7" d="M469.57,428.54c2.07,5.89,3.88,12.25,5.55,18.94H384.51c3.15-16,6.09-31,8.7-44.5.2-1.14.47-2.28.67-3.41,1.14-5.69,2.21-11.11,3.21-16.19.4-2.14.8-4.22,1.14-6.16.2-1.07.4-2.07.6-3.15.2-.87.4-1.81.53-2.68.34-1.4.54-2.74.8-4,.07-.34.13-.6.2-.94,1.81-9.24,3.21-16.6,4.22-21.42a.81.81,0,0,1,.07-.4l.07-.33,1.14-5.89-.13-.47-5.55-16.8.07-.2.07-.07,7.09-12.38L415,295.1l1.27-2.21,2.74-4.82.87,3.81,1.4,6L424,309.55l2.08,9a3.51,3.51,0,0,0,6,0l18.2-27.64,1.74-2.68a3.83,3.83,0,0,1,.54.2.24.24,0,0,1,.2.07l.6,2.94,1.21,5.55,4.55,21.42.07.33-3.95,29-2,14.92L449,392.85v.2a49.14,49.14,0,0,1,6.69,7.56c5.4,7.32,9.95,16.82,13.84,27.93" transform="translate(-277.63 -163.06)"/><path class="cls-3" d="M397,392.85a325.59,325.59,0,0,1,49.18.87c.54,0,.54-.79,0-.84A325.62,325.62,0,0,0,397,392c-.54,0-.55.87,0,.84" transform="translate(-277.63 -163.06)"/><path class="cls-3" d="M397,390.07a325.59,325.59,0,0,1,49.18.87c.54.05.54-.79,0-.84a325.62,325.62,0,0,0-49.18-.87c-.54,0-.55.87,0,.84" transform="translate(-277.63 -163.06)"/><path class="cls-3" d="M439.32,396.68c5.33,2.44,9.93,8.29,9.52,14.41-.23,3.38-3,6.48-6.59,5.06-3.27-1.31-4.38-4.85-4.42-8.1-.06-3.88,1-7.68.41-11.55a.42.42,0,0,0-.7-.19l-1.28,1.44h.6a6.75,6.75,0,0,0-1-1,7.43,7.43,0,0,0-1.63-.46l-3.83-1a.42.42,0,0,0-.22.81l3.26.88c.51.14,1,.24,1.53.41a3.46,3.46,0,0,1,1.35,1,.43.43,0,0,0,.6,0l1.28-1.44-.7-.19c.67,4.31-.83,8.6-.35,12.91.35,3.15,1.92,6.2,5,7.36a5.5,5.5,0,0,0,7-3.37c1.33-3.27.23-7.22-1.38-10.19a17.36,17.36,0,0,0-8-7.48c-.52-.21-.95.51-.46.74" transform="translate(-277.63 -163.06)"/><path class="cls-3" d="M399.84,321.25c.92,3.11,2,6.19,3,9.27.8,2.39,2.06,5,2.53,7.43.36,1.89-.91,5.65-1.37,7.92-2.37,11.58-4.76,23.15-7.1,34.74-.08.4.53.57.61.17q3.6-17.77,7.26-35.52c.45-2.17,1.62-5.05,1.29-7.25s-1.64-4.75-2.38-7c-1.11-3.31-2.22-6.62-3.21-10a.32.32,0,0,0-.61.17" transform="translate(-277.63 -163.06)"/><path class="cls-8" d="M427,328.23l5.09,5.8c0-.2.05-.4.07-.6l-6.51,5.8h.6l-5.09-5.8c0,.2-.05.4-.07.6l6.51-5.8a.4.4,0,1,0-.52-.59l-6.51,5.8a.43.43,0,0,0-.07.6l5.09,5.8a.43.43,0,0,0,.6,0l6.51-5.8a.44.44,0,0,0,.07-.6l-5.09-5.8c-.34-.38-1,.21-.68.59" transform="translate(-277.63 -163.06)"/><path class="cls-8" d="M425.2,343.27l5.09,5.8c0-.2,0-.4.07-.6l-6.51,5.8h.6l-5.09-5.8c0,.2-.05.4-.07.6l6.51-5.8a.4.4,0,1,0-.52-.59l-6.51,5.8a.43.43,0,0,0-.07.6l5.09,5.8a.43.43,0,0,0,.6,0l6.51-5.8a.44.44,0,0,0,.07-.6l-5.09-5.8c-.35-.39-1,.21-.68.59" transform="translate(-277.63 -163.06)"/><path class="cls-8" d="M423.35,358.31l5.09,5.8c0-.2.05-.4.07-.6l-6.51,5.8h.6l-5.09-5.8c0,.2-.05.4-.07.6l6.51-5.8a.4.4,0,1,0-.52-.59l-6.51,5.8a.43.43,0,0,0-.07.6l5.09,5.8a.43.43,0,0,0,.6,0l6.51-5.8a.44.44,0,0,0,.07-.6l-5.09-5.8c-.35-.39-1,.2-.68.59" transform="translate(-277.63 -163.06)"/><path class="cls-3" d="M418.38,305.56a57.64,57.64,0,0,0,2.66,8.5,34.49,34.49,0,0,0,3.55,7c1.19,1.68,2.8,3,4.84,2.67s4-2.51,5.63-4.41c.33-.39,0-1-.38-.61-1.51,1.78-3.26,3.85-5.31,4.21-2.3.4-3.93-1.76-5.06-3.74a51.68,51.68,0,0,1-5.3-14c-.12-.5-.75-.11-.63.39" transform="translate(-277.63 -163.06)"/><path class="cls-7" d="M514.65,356.72c-2.44-.88-10.2-2.77-22.62,5.43a46.05,46.05,0,0,1-22.73,7.23h-.14a20.23,20.23,0,0,0-12.93,5.87,19.52,19.52,0,0,0-2.1,2.47l-5.06-79.53,3-9.78a33.05,33.05,0,0,1,25.38,14.79c4.37,6.82,7.42,14.92,11.27,22.2,6.06,11.44,25.14,30.67,25.7,30.93a4.4,4.4,0,0,0,.26.39" transform="translate(-277.63 -163.06)"/><path class="cls-7" d="M473.88,298.57a148.33,148.33,0,0,1,14.84,27.72.32.32,0,1,0,.6-.22,148.58,148.58,0,0,0-14.91-27.89.33.33,0,0,0-.53.39" transform="translate(-277.63 -163.06)"/><g class="cls-9"><polygon class="cls-10" points="128.45 176.09 141.72 178.43 126.86 181.94 128.45 176.09"/></g><path class="cls-4" d="M460.84,239.41c-.35,1.55-.7,3.16-1.2,4.71a40.28,40.28,0,0,1-2.46,6.75c-.35.91-.78,1.76-1.2,2.6a24.69,24.69,0,0,1-5.69,7.52,13,13,0,0,1-3.1,1.9c-4.14,1.9-9.13,2-13.56,1.48h-.07c-1.34-.21-2.6-.42-3.66-.63A23.19,23.19,0,0,1,416.27,255c-4.22-5.55-4.92-12.44-4.14-19a38.55,38.55,0,0,1,.7-4.85c.21-1,.49-2,.77-3.09a13.52,13.52,0,0,1,.63-2.25c.28-1.13.63-2.32,1-3.44.07.07.07,0,.07,0a10.54,10.54,0,0,0,5.48-7c.42-2.39,0-5.27,2.39-6.89,1.9-1.34,5-1.34,7.73-1.76,2.32-.35,4.22-3.58,4.36-3.58,7.79,27.24,26.51,31.88,25.6,36.31" transform="translate(-277.63 -163.06)"/><path class="cls-3" d="M417.61,224.89a7,7,0,0,0-6.16,3.44.77.77,0,0,0,.27,1,.76.76,0,0,0,1-.27,5.38,5.38,0,0,1,2.06-2,5.28,5.28,0,0,1,2.79-.68.77.77,0,0,0,.76-.76.75.75,0,0,0-.75-.76" transform="translate(-277.63 -163.06)"/><path class="cls-3" d="M434.12,226.34A5.45,5.45,0,0,1,439,229a.76.76,0,0,0,1,.27.77.77,0,0,0,.27-1,7,7,0,0,0-6.15-3.44.77.77,0,0,0-.76.76.78.78,0,0,0,.77.76" transform="translate(-277.63 -163.06)"/><path class="cls-4" d="M455.74,245.61a7.11,7.11,0,1,0,7.84-6.51,7.23,7.23,0,0,0-7.84,6.51" transform="translate(-277.63 -163.06)"/><path class="cls-2" d="M463.6,243.71a2.78,2.78,0,0,1,1,5.26c-.43.23-.05.88.38.65A3.53,3.53,0,0,0,463.6,243c-.48-.06-.48.7,0,.75" transform="translate(-277.63 -163.06)"/><path class="cls-2" d="M433.38,246.47a3.42,3.42,0,0,1-1.68,2.45,3.39,3.39,0,0,1-3.24,0c-.43-.24-.81.42-.38.65a4.07,4.07,0,0,0,6-2.9.38.38,0,0,0-.27-.46.37.37,0,0,0-.46.27" transform="translate(-277.63 -163.06)"/><path class="cls-2" d="M424,231l-.84,5.58a.38.38,0,0,0,.73.2l.84-5.58a.38.38,0,0,0-.27-.46.37.37,0,0,0-.46.26" transform="translate(-277.63 -163.06)"/><path class="cls-2" d="M422.75,240.2a3.51,3.51,0,0,0,.32,2.84,1.67,1.67,0,0,0,1.1.66,1.62,1.62,0,0,0,1.3-.43c.35-.34-.18-.87-.54-.54a.86.86,0,0,1-.71.22.92.92,0,0,1-.62-.45,2.88,2.88,0,0,1-.13-2.09.37.37,0,0,0-.27-.46.35.35,0,0,0-.45.25" transform="translate(-277.63 -163.06)"/><g class="cls-11"><path class="cls-5" d="M431.23,235.81a.38.38,0,1,1-.41-.35.39.39,0,0,1,.41.35" transform="translate(-277.63 -163.06)"/></g><g class="cls-11"><path class="cls-5" d="M432.09,237.11a.38.38,0,1,1-.41-.35.39.39,0,0,1,.41.35" transform="translate(-277.63 -163.06)"/></g><g class="cls-11"><path class="cls-5" d="M433.81,235.6a.38.38,0,1,1-.41-.35.38.38,0,0,1,.41.35" transform="translate(-277.63 -163.06)"/></g><g class="cls-11"><path class="cls-5" d="M434.69,236.91a.38.38,0,1,1-.41-.35.38.38,0,0,1,.41.35" transform="translate(-277.63 -163.06)"/></g><g class="cls-11"><path class="cls-5" d="M436.14,235.42a.38.38,0,1,1-.41-.35.38.38,0,0,1,.41.35" transform="translate(-277.63 -163.06)"/></g><g class="cls-11"><path class="cls-5" d="M419.8,236.27a.38.38,0,1,0,.41-.35.38.38,0,0,0-.41.35" transform="translate(-277.63 -163.06)"/></g><g class="cls-11"><path class="cls-5" d="M418.94,237.57a.38.38,0,1,0,.41-.35.38.38,0,0,0-.41.35" transform="translate(-277.63 -163.06)"/></g><g class="cls-11"><path class="cls-5" d="M417.22,236.06a.38.38,0,1,0,.41-.35.38.38,0,0,0-.41.35" transform="translate(-277.63 -163.06)"/></g><g class="cls-11"><path class="cls-5" d="M416.34,237.37a.38.38,0,1,0,.41-.35.38.38,0,0,0-.41.35" transform="translate(-277.63 -163.06)"/></g><g class="cls-11"><path class="cls-5" d="M414.89,235.88a.38.38,0,1,0,.41-.35.38.38,0,0,0-.41.35" transform="translate(-277.63 -163.06)"/></g><path class="cls-2" d="M419.81,231.2a2,2,0,1,1-2-2,2,2,0,0,1,2,2" transform="translate(-277.63 -163.06)"/><path class="cls-12" d="M417.17,230.34a.36.36,0,1,1-.36-.36.36.36,0,0,1,.36.36" transform="translate(-277.63 -163.06)"/><path class="cls-2" d="M434.94,231.2a2,2,0,1,1-2-2,2,2,0,0,1,2,2" transform="translate(-277.63 -163.06)"/><path class="cls-12" d="M432.3,230.34a.36.36,0,1,1-.36-.36.36.36,0,0,1,.36.36" transform="translate(-277.63 -163.06)"/><g class="cls-13"><path class="cls-5" d="M455.3,250.87c-3,8-10.46,13.06-18.35,12.41-.44,0-.47.72,0,.76,8.21.68,15.93-4.59,19-12.94a.35.35,0,1,0-.66-.23" transform="translate(-277.63 -163.06)"/></g><path class="cls-8" d="M465.68,253.07c-.74-1.07-1.47-2.08-2.21-3.15-.07-.13-.13,0-.2,0s-.13-.13-.2,0c-.8,1.14-1.54,2.28-2.34,3.41-.54.8-1.14,1.61-1.67,2.41a.42.42,0,0,0,0,.54l4,5.82c.13.13.34.13.4,0,1.34-1.94,2.74-3.88,4.08-5.82a.72.72,0,0,0,0-.54c-.59-.86-1.26-1.8-1.87-2.67m-2.4,8.16L459.67,256c.6-.87,1.2-1.67,1.74-2.54s1.27-1.81,1.87-2.68c.6.8,1.14,1.67,1.74,2.48s1.27,1.81,1.94,2.74c-1.28,1.74-2.48,3.48-3.68,5.22" transform="translate(-277.63 -163.06)"/><path class="cls-4" d="M300.49,362.41a12.5,12.5,0,0,1-6.36-3.89,7.68,7.68,0,0,1-1.54-7.09,9.53,9.53,0,0,1,2.53-3.69,7.17,7.17,0,0,1,3.78-2.22c1.68-.26,3.35.48,4.89,1.19a32.67,32.67,0,0,1,5.86,3.22,11,11,0,0,1,4.05,5.21c.79,2.38.62,5.81-2,6.89a17.79,17.79,0,0,1-11.24.38" transform="translate(-277.63 -163.06)"/><line class="cls-14" x1="62.51" y1="284.42" x2="235.57" y2="284.42"/><path class="cls-4" d="M303.35,362.74c3.77-2.24,6.12-6.14,7.8-10.07.27-.64,2.11,2.83,2.56,2.46-.23-1.79-2.36-10-3.93-12.66-2-3.51-4.48-6.81-5.28-8.39s-2.95-.51-2.94,1.93,2,5.08,2.14,5.72.48,3.28.48,3.28-7.7-5.38-11.49-7.79c-4.24-2.69-6.79-5.77-8.77-4.85s1.39,3.6,2.78,4.84a52.68,52.68,0,0,1,4.32,5.22s0,.08-.09.2c-2.09-1.81-9.23-7.89-10.64-7.71-1.65.21-.33,3.49,1.43,4.87,1.58,1.23,4.59,5.08,7.33,7,0,.1-.09.2-.14.3-2.7-2-8.8-6.54-10.1-6.84-2.31-.52-.57,3.25,3,6.05a25.63,25.63,0,0,1,4.57,4.56,38,38,0,0,1-5.27-3.41c-2.44-2-4.28-.93-3.21.54s7.69,6.56,7.69,6.56c0,.31,6.27,5.88,17.38,8.39l.34-.21" transform="translate(-277.63 -163.06)"/><path class="cls-15" d="M295.49,340.74s-6.12,5-7.93,12.63c0,0,7.52-11.48,7.93-12.63" transform="translate(-277.63 -163.06)"/></svg>